<?xml version="1.0" encoding="UTF-8"?>
<svg xmlns="http://www.w3.org/2000/svg" width="1920" height="484" viewBox="0 0 1920 484" fill="none">
  <path d="M1655.16 41.1365L1718.7 171.605C1742.25 219.919 1704.74 275.577 1651.2 271.766L1506.68 261.492C1453.15 257.681 1423.73 197.271 1453.72 152.768L1534.69 32.5728C1564.69 -11.9302 1631.61 -7.17768 1655.13 41.1467L1655.16 41.1365Z" fill="#FF6021"></path>
  <path d="M379.298 111.169C336.406 68.2771 266.854 68.2771 223.939 111.169L172.168 162.963C129.277 205.855 129.277 275.407 172.168 318.322C215.06 361.214 284.612 361.214 327.527 318.322L379.321 266.528C422.213 223.636 422.213 154.084 379.321 111.169H379.298Z" fill="url(#paint0_linear_7570_123795)"></path>
  <path d="M330.181 445.213L437.034 480.964C466.537 490.83 498.459 474.927 508.325 445.425L544.075 338.571C553.941 309.069 538.039 277.147 508.536 267.281L401.683 231.53C372.18 221.665 340.258 237.567 330.392 267.07L294.641 373.923C284.776 403.426 300.678 435.348 330.181 445.213Z" fill="#DDCAFF"></path>
  <path d="M308.031 333.824L330.369 267.043C340.235 237.541 372.157 221.615 401.66 231.504L402.717 231.856C397.361 244.447 389.563 256.262 379.274 266.527L327.48 318.321C321.467 324.334 314.913 329.502 308.008 333.824H308.031Z" fill="#FF6124"></path>
  <defs>
    <linearGradient id="paint0_linear_7570_123795" x1="275.745" y1="79" x2="275.744" y2="350.489" gradientUnits="userSpaceOnUse">
      <stop stop-color="#FFA5FF"></stop>
      <stop offset="1" stop-color="#FF9F00"></stop>
    </linearGradient>
  </defs>
</svg>
